<svg width="32" height="32" viewBox="0 0 32 32" fill="none" xmlns="http://www.w3.org/2000/svg">
<path fill-rule="evenodd" clip-rule="evenodd" d="M16 0C7.16347 0 0 7.16347 0 16C0 24.8365 7.16347 32 16 32C24.8365 32 32 24.8365 32 16C32 7.16347 24.8365 0 16 0ZM15.9759 17.3462L9.99913 13.0077V22.1533H9.0006C8.44427 22.1533 8.00207 21.7111 8.00207 21.1548V11.0413C8.00207 10.999 8.00467 10.9593 8.0096 10.9221C8.02773 10.7634 8.0856 10.6081 8.18753 10.4707C8.5156 10.0285 9.15753 9.92867 9.614 10.2567L15.9902 14.8927L22.4092 10.1997C22.8514 9.8716 23.4791 9.97147 23.8071 10.4279C23.9815 10.663 24.035 10.9504 23.9783 11.2174V21.1691C23.9783 21.7111 23.5361 22.1533 22.9798 22.1533H21.9813V12.9859L15.9759 17.3462Z" fill="#F2F2F2"/>
</svg>
